<svg width="101" height="75" viewBox="0 0 101 75" fill="none" xmlns="http://www.w3.org/2000/svg">
<mask id="path-1-outside-1_1120_2" maskUnits="userSpaceOnUse" x="-0.0146484" y="0.0224609" width="101" height="75" fill="black">
<rect fill="white" x="-0.0146484" y="0.0224609" width="101" height="75"/>
<path fill-rule="evenodd" clip-rule="evenodd" d="M62.7137 4.02246C67.4042 16.7538 79.8484 28.9953 98.7301 35.8509V35.8995V38.89V38.9387C79.8484 45.7942 67.4042 58.0357 62.7137 70.7671L52.8678 61.9855C57.1458 55.5686 69.7998 45.8603 84.6686 39.9944C49.0226 40.5383 5.01099 43.4173 1.98535 44.9301V29.8535C5.01055 31.3661 49.0098 34.2445 84.6531 34.789C69.7909 28.9225 57.1443 19.2187 52.8678 12.804L62.7137 4.02246Z"/>
</mask>
<g filter="url(#filter0_i_1120_2)">
<path fill-rule="evenodd" clip-rule="evenodd" d="M62.7137 4.02246C67.4042 16.7538 79.8484 28.9953 98.7301 35.8509V35.8995V38.89V38.9387C79.8484 45.7942 67.4042 58.0357 62.7137 70.7671L52.8678 61.9855C57.1458 55.5686 69.7998 45.8603 84.6686 39.9944C49.0226 40.5383 5.01099 43.4173 1.98535 44.9301V29.8535C5.01055 31.3661 49.0098 34.2445 84.6531 34.789C69.7909 28.9225 57.1443 19.2187 52.8678 12.804L62.7137 4.02246Z" fill="#F1EEE4"/>
</g>
<path d="M98.7301 35.8509H100.684V34.4813L99.397 34.0139L98.7301 35.8509ZM62.7137 4.02246L64.5475 3.34685L63.5552 0.653319L61.4129 2.56398L62.7137 4.02246ZM98.7301 38.9387L99.397 40.7756L100.684 40.3082V38.9387H98.7301ZM62.7137 70.7671L61.4129 72.2256L63.5552 74.1362L64.5475 71.4427L62.7137 70.7671ZM52.8678 61.9855L51.2418 60.9015L50.3001 62.314L51.567 63.444L52.8678 61.9855ZM84.6686 39.9944L85.3858 41.8124L84.6388 38.0404L84.6686 39.9944ZM1.98535 44.9301H0.0310595V48.0922L2.85934 46.6781L1.98535 44.9301ZM1.98535 29.8535L2.85934 28.1055L0.0310595 26.6914V29.8535H1.98535ZM84.6531 34.789L84.6233 36.743L85.3707 32.9712L84.6531 34.789ZM52.8678 12.804L51.567 11.3455L50.3001 12.4755L51.2418 13.888L52.8678 12.804ZM99.397 34.0139C80.9287 27.3085 68.9965 15.4226 64.5475 3.34685L60.8799 4.69807C65.812 18.085 78.768 30.6822 98.0631 37.6878L99.397 34.0139ZM100.684 35.8995V35.8509H96.7758V35.8995H100.684ZM100.684 38.89V35.8995H96.7758V38.89H100.684ZM100.684 38.9387V38.89H96.7758V38.9387H100.684ZM64.5475 71.4427C68.9965 59.3669 80.9287 47.4811 99.397 40.7756L98.0631 37.1017C78.768 44.1074 65.812 56.7045 60.8799 70.0915L64.5475 71.4427ZM51.567 63.444L61.4129 72.2256L64.0146 69.3086L54.1686 60.5271L51.567 63.444ZM83.9515 38.1765C76.3588 41.1719 69.3388 45.1442 63.662 49.1922C58.0216 53.2142 53.5707 57.4081 51.2418 60.9015L54.4939 63.0696C56.4429 60.1461 60.458 56.2774 65.9313 52.3745C71.3681 48.4977 78.1096 44.6829 85.3858 41.8124L83.9515 38.1765ZM84.6388 38.0404C66.781 38.3128 46.8361 39.1699 30.974 40.1483C23.0439 40.6375 16.1206 41.1578 10.9813 41.6519C8.4143 41.8987 6.27322 42.1407 4.66679 42.3716C3.8654 42.4868 3.17441 42.6023 2.61965 42.7187C2.12958 42.8215 1.55189 42.9619 1.11137 43.1822L2.85934 46.6781C2.79702 46.7093 2.91774 46.6499 3.42218 46.544C3.86193 46.4518 4.46156 46.3498 5.22279 46.2404C6.74162 46.0222 8.81383 45.7869 11.3554 45.5425C16.4332 45.0543 23.3079 44.5372 31.2146 44.0495C47.0263 43.0742 66.9102 42.2199 84.6985 41.9485L84.6388 38.0404ZM3.93964 44.9301V29.8535H0.0310595V44.9301H3.93964ZM1.11137 31.6015C1.55184 31.8217 2.12943 31.9621 2.61941 32.0649C3.17405 32.1813 3.86489 32.2968 4.66609 32.412C6.27213 32.6428 8.41269 32.8848 10.9791 33.1316C16.1171 33.6256 23.0388 34.1458 30.9671 34.6349C46.8257 35.6132 66.7669 36.4703 84.6233 36.743L84.683 32.8349C66.8961 32.5632 47.016 31.7089 31.2078 30.7337C23.3028 30.2461 16.4297 29.729 11.3531 29.2409C8.81225 28.9966 6.74057 28.7614 5.22213 28.5431C4.4611 28.4337 3.86163 28.3318 3.42199 28.2396C2.91768 28.1338 2.79701 28.0744 2.85934 28.1055L1.11137 31.6015ZM51.2418 13.888C53.5699 17.3803 58.0185 21.5725 63.6561 25.5932C69.33 29.6398 76.3464 33.6111 83.9356 36.6068L85.3707 32.9712C78.0977 30.1004 71.3596 26.2865 65.9256 22.411C60.4552 18.5095 56.4422 14.6424 54.4939 11.7199L51.2418 13.888ZM61.4129 2.56398L51.567 11.3455L54.1686 14.2625L64.0146 5.48094L61.4129 2.56398Z" fill="#F1EEE4" mask="url(#path-1-outside-1_1120_2)"/>
<defs>
<filter id="filter0_i_1120_2" x="0.03125" y="0.65332" width="101.63" height="74.4601" filterUnits="userSpaceOnUse" color-interpolation-filters="sRGB">
<feFlood flood-opacity="0" result="BackgroundImageFix"/>
<feBlend mode="normal" in="SourceGraphic" in2="BackgroundImageFix" result="shape"/>
<feColorMatrix in="SourceAlpha" type="matrix" values="0 0 0 0 0 0 0 0 0 0 0 0 0 0 0 0 0 0 127 0" result="hardAlpha"/>
<feOffset dx="0.977146" dy="0.977146"/>
<feGaussianBlur stdDeviation="3.42001"/>
<feComposite in2="hardAlpha" operator="arithmetic" k2="-1" k3="1"/>
<feColorMatrix type="matrix" values="0 0 0 0 0 0 0 0 0 0 0 0 0 0 0 0 0 0 1 0"/>
<feBlend mode="normal" in2="shape" result="effect1_innerShadow_1120_2"/>
</filter>
</defs>
</svg>
