<svg width="17" height="17" viewBox="0 0 17 17" fill="none" xmlns="http://www.w3.org/2000/svg">
<path d="M6 0H1.5C1.10218 0 0.720644 0.158035 0.43934 0.43934C0.158035 0.720644 0 1.10218 0 1.5V6C0 6.39782 0.158035 6.77936 0.43934 7.06066C0.720644 7.34196 1.10218 7.5 1.5 7.5H6C6.39782 7.5 6.77936 7.34196 7.06066 7.06066C7.34196 6.77936 7.5 6.39782 7.5 6V1.5C7.5 1.10218 7.34196 0.720644 7.06066 0.43934C6.77936 0.158035 6.39782 0 6 0ZM6 6H1.5V1.5H6V6ZM15 0H10.5C10.1022 0 9.72064 0.158035 9.43934 0.43934C9.15804 0.720644 9 1.10218 9 1.5V6C9 6.39782 9.15804 6.77936 9.43934 7.06066C9.72064 7.34196 10.1022 7.5 10.5 7.5H15C15.3978 7.5 15.7794 7.34196 16.0607 7.06066C16.342 6.77936 16.5 6.39782 16.5 6V1.5C16.5 1.10218 16.342 0.720644 16.0607 0.43934C15.7794 0.158035 15.3978 0 15 0ZM15 6H10.5V1.5H15V6ZM6 9H1.5C1.10218 9 0.720644 9.15804 0.43934 9.43934C0.158035 9.72064 0 10.1022 0 10.5V15C0 15.3978 0.158035 15.7794 0.43934 16.0607C0.720644 16.342 1.10218 16.5 1.5 16.5H6C6.39782 16.5 6.77936 16.342 7.06066 16.0607C7.34196 15.7794 7.5 15.3978 7.5 15V10.5C7.5 10.1022 7.34196 9.72064 7.06066 9.43934C6.77936 9.15804 6.39782 9 6 9ZM6 15H1.5V10.5H6V15ZM15 9H10.5C10.1022 9 9.72064 9.15804 9.43934 9.43934C9.15804 9.72064 9 10.1022 9 10.5V15C9 15.3978 9.15804 15.7794 9.43934 16.0607C9.72064 16.342 10.1022 16.5 10.5 16.5H15C15.3978 16.5 15.7794 16.342 16.0607 16.0607C16.342 15.7794 16.5 15.3978 16.5 15V10.5C16.5 10.1022 16.342 9.72064 16.0607 9.43934C15.7794 9.15804 15.3978 9 15 9ZM15 15H10.5V10.5H15V15Z" fill="currentColor"/>
</svg>
