<svg width="20" height="29" viewBox="0 0 20 29" fill="none" xmlns="http://www.w3.org/2000/svg">
<g id="Group 1597879962">
<path id="Vector" d="M5.51004 19.1819L2.16675 22.5252L10.0081 27.7773L17.7595 22.5504L14.3909 19.1819" stroke="#474442" stroke-width="1.5" stroke-linejoin="round"/>
<path id="Ellipse 121" d="M2.43066 9.91288C3.19561 3.25675 10.0722 3.97775 10.0722 1.59766C10.0722 4.06581 16.9483 3.26662 17.7137 9.91288" stroke="#474442" stroke-width="1.5" stroke-linejoin="round"/>
<path id="Vector_2" d="M1.35986 10.3665L10.0133 7.94043L18.5673 10.3386V16.6736L10.0133 21.4417L1.35986 16.6457V10.3665Z" stroke="#474442" stroke-width="1.5" stroke-linejoin="round"/>
<path id="Vector_3" d="M10.0169 13.8585L10.0172 18.6879M7.13171 13.8585L7.13195 16.6062M4.24561 13.8585L4.24585 15.462M12.7936 13.8585L12.7939 16.6062M15.6797 13.8585L15.68 15.462" stroke="#474442" stroke-width="1.5" stroke-linecap="round" stroke-linejoin="round"/>
<path id="Vector_4" d="M10.0169 10.8594L10.0172 18.6887M7.13171 11.6588L7.13195 16.6071M4.24561 12.3737L4.24585 15.4628M12.7936 11.6588L12.7939 16.6071M15.6797 12.3737L15.68 15.4628" stroke="#474442" stroke-width="1.5" stroke-linecap="round" stroke-linejoin="round"/>
</g>
</svg>
