<svg width="18" height="16" viewBox="0 0 18 16" fill="none" xmlns="http://www.w3.org/2000/svg">
<path d="M16.5 8.75H1.5C1.10218 8.75 0.720644 8.90804 0.43934 9.18934C0.158035 9.47064 0 9.85218 0 10.25V14C0 14.3978 0.158035 14.7794 0.43934 15.0607C0.720644 15.342 1.10218 15.5 1.5 15.5H16.5C16.8978 15.5 17.2794 15.342 17.5607 15.0607C17.842 14.7794 18 14.3978 18 14V10.25C18 9.85218 17.842 9.47064 17.5607 9.18934C17.2794 8.90804 16.8978 8.75 16.5 8.75ZM16.5 14H1.5V10.25H16.5V14ZM16.5 0.5H1.5C1.10218 0.5 0.720644 0.658035 0.43934 0.93934C0.158035 1.22064 0 1.60218 0 2V5.75C0 6.14782 0.158035 6.52936 0.43934 6.81066C0.720644 7.09196 1.10218 7.25 1.5 7.25H16.5C16.8978 7.25 17.2794 7.09196 17.5607 6.81066C17.842 6.52936 18 6.14782 18 5.75V2C18 1.60218 17.842 1.22064 17.5607 0.93934C17.2794 0.658035 16.8978 0.5 16.5 0.5ZM16.5 5.75H1.5V2H16.5V5.75Z" fill="currentColor"/>
</svg>
