<svg width="317" height="1180" viewBox="0 0 317 1180" fill="none" xmlns="http://www.w3.org/2000/svg">
<circle cx="279" cy="1071" r="14" fill="url(#paint0_linear_1163_126)"/>
<circle cx="279" cy="1071" r="13.5" stroke="white" stroke-opacity="0.6"/>
<circle cx="279" cy="559" r="14" fill="url(#paint1_linear_1163_126)"/>
<circle cx="279" cy="559" r="13.5" stroke="white" stroke-opacity="0.6"/>
<circle cx="279" cy="47" r="14" fill="url(#paint2_linear_1163_126)"/>
<circle cx="279" cy="47" r="13.5" stroke="white" stroke-opacity="0.6"/>
<g style="mix-blend-mode:multiply" opacity="0.55" filter="url(#filter0_f_1163_126)">
<path d="M47.072 140.258C21.0118 138.519 39.5443 106.091 117.724 70.7666C126.41 73.2759 157.7 67.7329 148.484 120.261C147.901 123.587 136.442 110.207 120.838 113.81C96.6642 119.391 62.909 141.314 47.072 140.258Z" fill="#474442"/>
</g>
<g style="mix-blend-mode:multiply" opacity="0.55" filter="url(#filter1_f_1163_126)">
<path d="M47.072 647.39C21.0118 645.652 39.5443 613.224 117.724 577.899C126.41 580.409 157.7 574.866 148.484 627.394C147.901 630.72 136.442 617.34 120.838 620.943C96.6642 626.524 62.909 648.447 47.072 647.39Z" fill="#474442"/>
</g>
<g style="mix-blend-mode:multiply" opacity="0.55" filter="url(#filter2_f_1163_126)">
<path d="M47.072 1144.13C21.0118 1142.39 39.5443 1109.96 117.724 1074.64C126.41 1077.14 157.7 1071.6 148.484 1124.13C147.901 1127.46 136.442 1114.08 120.838 1117.68C96.6642 1123.26 62.909 1145.18 47.072 1144.13Z" fill="#474442"/>
</g>
<g filter="url(#filter3_i_1163_126)">
<path fill-rule="evenodd" clip-rule="evenodd" d="M118.398 1062.11H155.563V1081.73H116.584C109.17 1081.73 101.292 1077.93 97.3294 1070.97C95.2222 1067.26 94.3204 1062.75 95.3776 1058.02C96.4103 1053.4 99.1175 1049.4 102.754 1046.08C109.8 1039.66 121.687 1034.56 139.15 1030.95C156.888 1027.28 181.519 1024.94 215.214 1024.94C248.827 1024.94 272.047 1027.27 287.421 1031.02C295.087 1032.9 301.32 1035.25 306.021 1038.2C310.669 1041.12 314.839 1045.31 316.177 1051.14C317.564 1057.18 315.344 1062.44 312.528 1066.12C309.77 1069.72 305.961 1072.55 302.122 1074.69C294.434 1078.96 284.328 1081.73 274.872 1081.73V1062.11C280.906 1062.11 287.739 1060.23 292.585 1057.54C293.684 1056.93 295.071 1055.25 293.005 1053.95C290.774 1052.55 289.354 1051.7 282.762 1050.08C269.621 1046.87 248.208 1044.56 215.214 1044.56C182.303 1044.56 159.107 1046.86 143.121 1050.16C126.858 1053.52 120.658 1056.76 117.504 1059.64C116.379 1060.66 116.761 1062.11 118.398 1062.11Z" fill="url(#paint3_radial_1163_126)"/>
</g>
<mask id="mask0_1163_126" style="mask-type:alpha" maskUnits="userSpaceOnUse" x="94" y="1024" width="223" height="58">
<path fill-rule="evenodd" clip-rule="evenodd" d="M118.399 1062.11H155.564V1081.73H116.584C109.17 1081.73 101.292 1077.93 97.3299 1070.97C95.2226 1067.26 94.3209 1062.75 95.3781 1058.02C96.4108 1053.4 99.118 1049.4 102.754 1046.08C109.801 1039.66 121.688 1034.56 139.15 1030.95C156.889 1027.28 181.519 1024.94 215.215 1024.94C248.827 1024.94 272.048 1027.27 287.422 1031.03C295.087 1032.9 301.321 1035.25 306.021 1038.2C310.669 1041.13 314.84 1045.32 316.177 1051.14C317.565 1057.18 315.344 1062.44 312.528 1066.12C309.77 1069.73 305.961 1072.55 302.122 1074.69C294.435 1078.96 284.329 1081.73 274.873 1081.73V1062.11C280.906 1062.11 287.74 1060.24 292.585 1057.54C293.685 1056.93 295.072 1055.25 293.005 1053.95C290.775 1052.55 289.355 1051.7 282.763 1050.09C269.622 1046.87 248.209 1044.56 215.215 1044.56C182.304 1044.56 159.108 1046.86 143.121 1050.16C126.859 1053.52 120.658 1056.76 117.505 1059.64C116.379 1060.66 116.761 1062.11 118.399 1062.11Z" fill="url(#paint4_radial_1163_126)"/>
</mask>
<g mask="url(#mask0_1163_126)">
<g filter="url(#filter4_f_1163_126)">
<ellipse cx="147.637" cy="1078.12" rx="40.5319" ry="27.6237" fill="url(#paint5_radial_1163_126)" fill-opacity="0.88"/>
</g>
<g filter="url(#filter5_f_1163_126)">
<ellipse cx="270.517" cy="1076.7" rx="40.5319" ry="27.6237" fill="url(#paint6_radial_1163_126)" fill-opacity="0.88"/>
</g>
<g filter="url(#filter6_f_1163_126)">
<path d="M126.409 1045.59C158.384 1037.91 238.158 1027.15 301.445 1045.59" stroke="url(#paint7_radial_1163_126)" stroke-width="10.9267" stroke-linejoin="round"/>
</g>
<g filter="url(#filter7_f_1163_126)">
<path d="M294.829 1053.31C294.829 1064.85 255.404 1074.21 206.771 1074.21C158.138 1074.21 109.908 1073.03 109.908 1061.49C109.908 1049.94 161.154 1035.35 209.787 1035.35C258.42 1035.35 294.829 1041.76 294.829 1053.31Z" fill="url(#paint8_radial_1163_126)"/>
</g>
<g filter="url(#filter8_f_1163_126)">
<ellipse cx="153.269" cy="1099.77" rx="40.5319" ry="27.6237" fill="#474442"/>
</g>
<g opacity="0.5" filter="url(#filter9_f_1163_126)">
<ellipse cx="320.689" cy="1053.33" rx="11.1092" ry="7.57122" fill="#474442"/>
</g>
<g filter="url(#filter10_f_1163_126)">
<ellipse cx="274.959" cy="1098.26" rx="52.0848" ry="27.6237" fill="#474442"/>
</g>
</g>
<g style="mix-blend-mode:multiply" filter="url(#filter11_f_1163_126)">
<path d="M156.352 1075.02H272.01" stroke="#B0B0B0" stroke-width="10.9267"/>
</g>
<g filter="url(#filter12_i_1163_126)">
<path fill-rule="evenodd" clip-rule="evenodd" d="M118.398 548.641H155.563V568.261H116.584C109.17 568.261 101.292 564.457 97.3294 557.495C95.2222 553.792 94.3204 549.28 95.3776 544.549C96.4103 539.927 99.1175 535.924 102.754 532.611C109.8 526.191 121.687 521.086 139.15 517.477C156.888 513.81 181.519 511.465 215.214 511.465C248.827 511.465 272.047 513.796 287.421 517.554C295.087 519.428 301.32 521.778 306.021 524.732C310.669 527.654 314.839 531.844 316.177 537.666C317.564 543.705 315.344 548.965 312.528 552.647C309.77 556.254 305.961 559.08 302.122 561.216C294.434 565.491 284.328 568.261 274.872 568.261V548.641C280.906 548.641 287.739 546.764 292.585 544.069C293.684 543.457 295.071 541.781 293.005 540.482C290.774 539.08 289.354 538.225 282.762 536.614C269.621 533.401 248.208 531.085 215.214 531.085C182.303 531.085 159.107 533.387 143.121 536.691C126.858 540.052 120.658 543.292 117.504 546.166C116.379 547.191 116.761 548.641 118.398 548.641Z" fill="url(#paint9_radial_1163_126)"/>
</g>
<mask id="mask1_1163_126" style="mask-type:alpha" maskUnits="userSpaceOnUse" x="94" y="511" width="223" height="58">
<path fill-rule="evenodd" clip-rule="evenodd" d="M118.399 548.641H155.564V568.262H116.584C109.17 568.262 101.292 564.457 97.3299 557.495C95.2226 553.793 94.3209 549.281 95.3781 544.549C96.4108 539.928 99.118 535.925 102.754 532.612C109.801 526.191 121.688 521.086 139.15 517.477C156.889 513.811 181.519 511.465 215.215 511.465C248.827 511.465 272.048 513.796 287.422 517.555C295.087 519.428 301.321 521.778 306.021 524.733C310.669 527.654 314.84 531.845 316.177 537.667C317.565 543.705 315.344 548.965 312.528 552.648C309.77 556.254 305.961 559.081 302.122 561.216C294.435 565.492 284.329 568.262 274.873 568.262V548.641C280.906 548.641 287.74 546.764 292.585 544.069C293.685 543.458 295.072 541.781 293.005 540.482C290.775 539.08 289.355 538.225 282.763 536.614C269.622 533.402 248.209 531.086 215.215 531.086C182.304 531.086 159.108 533.387 143.121 536.692C126.859 540.053 120.658 543.293 117.505 546.166C116.379 547.191 116.761 548.641 118.399 548.641Z" fill="url(#paint10_radial_1163_126)"/>
</mask>
<g mask="url(#mask1_1163_126)">
<g filter="url(#filter13_f_1163_126)">
<ellipse cx="147.637" cy="564.648" rx="40.5319" ry="27.6237" fill="url(#paint11_radial_1163_126)" fill-opacity="0.88"/>
</g>
<g filter="url(#filter14_f_1163_126)">
<ellipse cx="270.517" cy="563.229" rx="40.5319" ry="27.6237" fill="url(#paint12_radial_1163_126)" fill-opacity="0.88"/>
</g>
<g filter="url(#filter15_f_1163_126)">
<path d="M126.409 532.119C158.384 524.436 238.158 513.68 301.445 532.119" stroke="url(#paint13_radial_1163_126)" stroke-width="10.9267" stroke-linejoin="round"/>
</g>
<g filter="url(#filter16_f_1163_126)">
<path d="M294.829 539.939C294.829 551.484 255.404 560.843 206.771 560.843C158.138 560.843 109.908 559.665 109.908 548.12C109.908 536.575 161.154 521.981 209.787 521.981C258.42 521.981 294.829 528.393 294.829 539.939Z" fill="url(#paint14_radial_1163_126)"/>
</g>
<g filter="url(#filter17_f_1163_126)">
<ellipse cx="153.269" cy="586.298" rx="40.5319" ry="27.6237" fill="#474442"/>
</g>
<g opacity="0.5" filter="url(#filter18_f_1163_126)">
<ellipse cx="320.689" cy="539.862" rx="11.1092" ry="7.57122" fill="#474442"/>
</g>
<g filter="url(#filter19_f_1163_126)">
<ellipse cx="274.959" cy="584.785" rx="52.0848" ry="27.6237" fill="#474442"/>
</g>
</g>
<g style="mix-blend-mode:multiply" filter="url(#filter20_f_1163_126)">
<path d="M156.352 561.55H272.01" stroke="#B0B0B0" stroke-width="10.9267"/>
</g>
<g filter="url(#filter21_i_1163_126)">
<path fill-rule="evenodd" clip-rule="evenodd" d="M118.398 37.1758H155.563V56.7963H116.584C109.17 56.7963 101.292 52.9921 97.3294 46.0299C95.2222 42.3273 94.3204 37.8153 95.3776 33.084C96.4103 28.4626 99.1175 24.4595 102.754 21.1465C109.8 14.726 121.687 9.62099 139.15 6.01178C156.888 2.34542 181.519 0 215.214 0C248.827 0 272.047 2.33114 287.421 6.08931C295.087 7.96315 301.32 10.3128 306.021 13.2673C310.669 16.1889 314.839 20.3792 316.177 26.2015C317.564 32.2398 315.344 37.5 312.528 41.1826C309.77 44.7888 305.961 47.6156 302.122 49.7509C294.434 54.0263 284.328 56.7963 274.872 56.7963V37.1758C280.906 37.1758 287.739 35.2988 292.585 32.6038C293.684 31.9924 295.071 30.316 293.005 29.017C290.774 27.6149 289.354 26.7601 282.762 25.1487C269.621 21.9364 248.208 19.6206 215.214 19.6206C182.303 19.6206 159.107 21.9221 143.121 25.2262C126.858 28.5875 120.658 31.8274 117.504 34.7008C116.379 35.7261 116.761 37.1758 118.398 37.1758Z" fill="url(#paint15_radial_1163_126)"/>
</g>
<mask id="mask2_1163_126" style="mask-type:alpha" maskUnits="userSpaceOnUse" x="94" y="0" width="223" height="57">
<path fill-rule="evenodd" clip-rule="evenodd" d="M118.399 37.1768H155.564V56.7973H116.584C109.17 56.7973 101.292 52.9931 97.3299 46.0309C95.2226 42.3283 94.3209 37.8163 95.3781 33.085C96.4108 28.4636 99.118 24.4605 102.754 21.1475C109.801 14.727 121.688 9.62196 139.15 6.01275C156.889 2.3464 181.519 0.000976562 215.215 0.000976562C248.827 0.000976562 272.048 2.33212 287.422 6.09028C295.087 7.96412 301.321 10.3137 306.021 13.2682C310.669 16.1899 314.84 20.3802 316.177 26.2025C317.565 32.2408 315.344 37.501 312.528 41.1836C309.77 44.7898 305.961 47.6166 302.122 49.7518C294.435 54.0273 284.329 56.7973 274.873 56.7973V37.1768C280.906 37.1768 287.74 35.2998 292.585 32.6048C293.685 31.9934 295.072 30.317 293.005 29.018C290.775 27.6159 289.355 26.761 282.763 25.1497C269.622 21.9374 248.209 19.6215 215.215 19.6215C182.304 19.6215 159.108 21.9231 143.121 25.2272C126.859 28.5884 120.658 31.8284 117.505 34.7018C116.379 35.727 116.761 37.1768 118.399 37.1768Z" fill="url(#paint16_radial_1163_126)"/>
</mask>
<g mask="url(#mask2_1163_126)">
<g filter="url(#filter22_f_1163_126)">
<ellipse cx="147.637" cy="53.1832" rx="40.5319" ry="27.6237" fill="url(#paint17_radial_1163_126)" fill-opacity="0.88"/>
</g>
<g filter="url(#filter23_f_1163_126)">
<ellipse cx="270.517" cy="51.7648" rx="40.5319" ry="27.6237" fill="url(#paint18_radial_1163_126)" fill-opacity="0.88"/>
</g>
<g filter="url(#filter24_f_1163_126)">
<path d="M126.409 20.655C158.384 12.9719 238.158 2.21554 301.445 20.655" stroke="url(#paint19_radial_1163_126)" stroke-width="10.9267" stroke-linejoin="round"/>
</g>
<g filter="url(#filter25_f_1163_126)">
<path d="M294.829 28.5733C294.829 40.1187 255.404 49.4781 206.771 49.4781C158.138 49.4781 109.908 48.3002 109.908 36.7548C109.908 25.2095 161.154 10.6157 209.787 10.6157C258.42 10.6157 294.829 17.028 294.829 28.5733Z" fill="url(#paint20_radial_1163_126)"/>
</g>
<g filter="url(#filter26_f_1163_126)">
<ellipse cx="153.269" cy="74.8341" rx="40.5319" ry="27.6237" fill="#474442"/>
</g>
<g opacity="0.5" filter="url(#filter27_f_1163_126)">
<ellipse cx="320.689" cy="28.3974" rx="11.1092" ry="7.57122" fill="#474442"/>
</g>
<g filter="url(#filter28_f_1163_126)">
<ellipse cx="274.959" cy="73.3209" rx="52.0848" ry="27.6237" fill="#474442"/>
</g>
</g>
<g style="mix-blend-mode:multiply" filter="url(#filter29_f_1163_126)">
<path d="M156.352 50.0879H272.01" stroke="#B0B0B0" stroke-width="10.9267"/>
</g>
<defs>
<filter id="filter0_f_1163_126" x="0.48835" y="35.255" width="185.188" height="140.551" filterUnits="userSpaceOnUse" color-interpolation-filters="sRGB">
<feFlood flood-opacity="0" result="BackgroundImageFix"/>
<feBlend mode="normal" in="SourceGraphic" in2="BackgroundImageFix" result="shape"/>
<feGaussianBlur stdDeviation="17.7558" result="effect1_foregroundBlur_1163_126"/>
</filter>
<filter id="filter1_f_1163_126" x="0.48835" y="542.388" width="185.188" height="140.551" filterUnits="userSpaceOnUse" color-interpolation-filters="sRGB">
<feFlood flood-opacity="0" result="BackgroundImageFix"/>
<feBlend mode="normal" in="SourceGraphic" in2="BackgroundImageFix" result="shape"/>
<feGaussianBlur stdDeviation="17.7558" result="effect1_foregroundBlur_1163_126"/>
</filter>
<filter id="filter2_f_1163_126" x="0.48835" y="1039.12" width="185.188" height="140.551" filterUnits="userSpaceOnUse" color-interpolation-filters="sRGB">
<feFlood flood-opacity="0" result="BackgroundImageFix"/>
<feBlend mode="normal" in="SourceGraphic" in2="BackgroundImageFix" result="shape"/>
<feGaussianBlur stdDeviation="17.7558" result="effect1_foregroundBlur_1163_126"/>
</filter>
<filter id="filter3_i_1163_126" x="94.9336" y="1024.94" width="221.668" height="59.7077" filterUnits="userSpaceOnUse" color-interpolation-filters="sRGB">
<feFlood flood-opacity="0" result="BackgroundImageFix"/>
<feBlend mode="normal" in="SourceGraphic" in2="BackgroundImageFix" result="shape"/>
<feColorMatrix in="SourceAlpha" type="matrix" values="0 0 0 0 0 0 0 0 0 0 0 0 0 0 0 0 0 0 127 0" result="hardAlpha"/>
<feOffset dy="3.64222"/>
<feGaussianBlur stdDeviation="1.45567"/>
<feComposite in2="hardAlpha" operator="arithmetic" k2="-1" k3="1"/>
<feColorMatrix type="matrix" values="0 0 0 0 0 0 0 0 0 0 0 0 0 0 0 0 0 0 0.23 0"/>
<feBlend mode="normal" in2="shape" result="effect1_innerShadow_1163_126"/>
</filter>
<filter id="filter4_f_1163_126" x="104.373" y="1047.76" width="86.5273" height="60.7106" filterUnits="userSpaceOnUse" color-interpolation-filters="sRGB">
<feFlood flood-opacity="0" result="BackgroundImageFix"/>
<feBlend mode="normal" in="SourceGraphic" in2="BackgroundImageFix" result="shape"/>
<feGaussianBlur stdDeviation="1.36583" result="effect1_foregroundBlur_1163_126"/>
</filter>
<filter id="filter5_f_1163_126" x="227.253" y="1046.34" width="86.5273" height="60.7106" filterUnits="userSpaceOnUse" color-interpolation-filters="sRGB">
<feFlood flood-opacity="0" result="BackgroundImageFix"/>
<feBlend mode="normal" in="SourceGraphic" in2="BackgroundImageFix" result="shape"/>
<feGaussianBlur stdDeviation="1.36583" result="effect1_foregroundBlur_1163_126"/>
</filter>
<filter id="filter6_f_1163_126" x="118.758" y="1023.57" width="190.589" height="33.7041" filterUnits="userSpaceOnUse" color-interpolation-filters="sRGB">
<feFlood flood-opacity="0" result="BackgroundImageFix"/>
<feBlend mode="normal" in="SourceGraphic" in2="BackgroundImageFix" result="shape"/>
<feGaussianBlur stdDeviation="3.18694" result="effect1_foregroundBlur_1163_126"/>
</filter>
<filter id="filter7_f_1163_126" x="104.971" y="1030.41" width="194.795" height="48.7361" filterUnits="userSpaceOnUse" color-interpolation-filters="sRGB">
<feFlood flood-opacity="0" result="BackgroundImageFix"/>
<feBlend mode="normal" in="SourceGraphic" in2="BackgroundImageFix" result="shape"/>
<feGaussianBlur stdDeviation="2.46845" result="effect1_foregroundBlur_1163_126"/>
</filter>
<filter id="filter8_f_1163_126" x="103.631" y="1063.04" width="99.2751" height="73.4584" filterUnits="userSpaceOnUse" color-interpolation-filters="sRGB">
<feFlood flood-opacity="0" result="BackgroundImageFix"/>
<feBlend mode="normal" in="SourceGraphic" in2="BackgroundImageFix" result="shape"/>
<feGaussianBlur stdDeviation="4.55278" result="effect1_foregroundBlur_1163_126"/>
</filter>
<filter id="filter9_f_1163_126" x="300.475" y="1036.66" width="40.4294" height="33.3534" filterUnits="userSpaceOnUse" color-interpolation-filters="sRGB">
<feFlood flood-opacity="0" result="BackgroundImageFix"/>
<feBlend mode="normal" in="SourceGraphic" in2="BackgroundImageFix" result="shape"/>
<feGaussianBlur stdDeviation="4.55278" result="effect1_foregroundBlur_1163_126"/>
</filter>
<filter id="filter10_f_1163_126" x="213.768" y="1061.53" width="122.381" height="73.4584" filterUnits="userSpaceOnUse" color-interpolation-filters="sRGB">
<feFlood flood-opacity="0" result="BackgroundImageFix"/>
<feBlend mode="normal" in="SourceGraphic" in2="BackgroundImageFix" result="shape"/>
<feGaussianBlur stdDeviation="4.55278" result="effect1_foregroundBlur_1163_126"/>
</filter>
<filter id="filter11_f_1163_126" x="145.425" y="1058.63" width="137.512" height="32.7801" filterUnits="userSpaceOnUse" color-interpolation-filters="sRGB">
<feFlood flood-opacity="0" result="BackgroundImageFix"/>
<feBlend mode="normal" in="SourceGraphic" in2="BackgroundImageFix" result="shape"/>
<feGaussianBlur stdDeviation="5.46333" result="effect1_foregroundBlur_1163_126"/>
</filter>
<filter id="filter12_i_1163_126" x="94.9336" y="511.465" width="221.668" height="59.7077" filterUnits="userSpaceOnUse" color-interpolation-filters="sRGB">
<feFlood flood-opacity="0" result="BackgroundImageFix"/>
<feBlend mode="normal" in="SourceGraphic" in2="BackgroundImageFix" result="shape"/>
<feColorMatrix in="SourceAlpha" type="matrix" values="0 0 0 0 0 0 0 0 0 0 0 0 0 0 0 0 0 0 127 0" result="hardAlpha"/>
<feOffset dy="3.64222"/>
<feGaussianBlur stdDeviation="1.45567"/>
<feComposite in2="hardAlpha" operator="arithmetic" k2="-1" k3="1"/>
<feColorMatrix type="matrix" values="0 0 0 0 0 0 0 0 0 0 0 0 0 0 0 0 0 0 0.23 0"/>
<feBlend mode="normal" in2="shape" result="effect1_innerShadow_1163_126"/>
</filter>
<filter id="filter13_f_1163_126" x="104.373" y="534.292" width="86.5273" height="60.7109" filterUnits="userSpaceOnUse" color-interpolation-filters="sRGB">
<feFlood flood-opacity="0" result="BackgroundImageFix"/>
<feBlend mode="normal" in="SourceGraphic" in2="BackgroundImageFix" result="shape"/>
<feGaussianBlur stdDeviation="1.36583" result="effect1_foregroundBlur_1163_126"/>
</filter>
<filter id="filter14_f_1163_126" x="227.253" y="532.874" width="86.5273" height="60.7109" filterUnits="userSpaceOnUse" color-interpolation-filters="sRGB">
<feFlood flood-opacity="0" result="BackgroundImageFix"/>
<feBlend mode="normal" in="SourceGraphic" in2="BackgroundImageFix" result="shape"/>
<feGaussianBlur stdDeviation="1.36583" result="effect1_foregroundBlur_1163_126"/>
</filter>
<filter id="filter15_f_1163_126" x="118.758" y="510.101" width="190.589" height="33.7043" filterUnits="userSpaceOnUse" color-interpolation-filters="sRGB">
<feFlood flood-opacity="0" result="BackgroundImageFix"/>
<feBlend mode="normal" in="SourceGraphic" in2="BackgroundImageFix" result="shape"/>
<feGaussianBlur stdDeviation="3.18694" result="effect1_foregroundBlur_1163_126"/>
</filter>
<filter id="filter16_f_1163_126" x="104.971" y="517.044" width="194.795" height="48.7361" filterUnits="userSpaceOnUse" color-interpolation-filters="sRGB">
<feFlood flood-opacity="0" result="BackgroundImageFix"/>
<feBlend mode="normal" in="SourceGraphic" in2="BackgroundImageFix" result="shape"/>
<feGaussianBlur stdDeviation="2.46845" result="effect1_foregroundBlur_1163_126"/>
</filter>
<filter id="filter17_f_1163_126" x="103.631" y="549.569" width="99.2751" height="73.4587" filterUnits="userSpaceOnUse" color-interpolation-filters="sRGB">
<feFlood flood-opacity="0" result="BackgroundImageFix"/>
<feBlend mode="normal" in="SourceGraphic" in2="BackgroundImageFix" result="shape"/>
<feGaussianBlur stdDeviation="4.55278" result="effect1_foregroundBlur_1163_126"/>
</filter>
<filter id="filter18_f_1163_126" x="300.475" y="523.185" width="40.4294" height="33.3537" filterUnits="userSpaceOnUse" color-interpolation-filters="sRGB">
<feFlood flood-opacity="0" result="BackgroundImageFix"/>
<feBlend mode="normal" in="SourceGraphic" in2="BackgroundImageFix" result="shape"/>
<feGaussianBlur stdDeviation="4.55278" result="effect1_foregroundBlur_1163_126"/>
</filter>
<filter id="filter19_f_1163_126" x="213.768" y="548.056" width="122.381" height="73.4587" filterUnits="userSpaceOnUse" color-interpolation-filters="sRGB">
<feFlood flood-opacity="0" result="BackgroundImageFix"/>
<feBlend mode="normal" in="SourceGraphic" in2="BackgroundImageFix" result="shape"/>
<feGaussianBlur stdDeviation="4.55278" result="effect1_foregroundBlur_1163_126"/>
</filter>
<filter id="filter20_f_1163_126" x="145.425" y="545.16" width="137.512" height="32.7801" filterUnits="userSpaceOnUse" color-interpolation-filters="sRGB">
<feFlood flood-opacity="0" result="BackgroundImageFix"/>
<feBlend mode="normal" in="SourceGraphic" in2="BackgroundImageFix" result="shape"/>
<feGaussianBlur stdDeviation="5.46333" result="effect1_foregroundBlur_1163_126"/>
</filter>
<filter id="filter21_i_1163_126" x="94.9336" y="0" width="221.668" height="59.7077" filterUnits="userSpaceOnUse" color-interpolation-filters="sRGB">
<feFlood flood-opacity="0" result="BackgroundImageFix"/>
<feBlend mode="normal" in="SourceGraphic" in2="BackgroundImageFix" result="shape"/>
<feColorMatrix in="SourceAlpha" type="matrix" values="0 0 0 0 0 0 0 0 0 0 0 0 0 0 0 0 0 0 127 0" result="hardAlpha"/>
<feOffset dy="3.64222"/>
<feGaussianBlur stdDeviation="1.45567"/>
<feComposite in2="hardAlpha" operator="arithmetic" k2="-1" k3="1"/>
<feColorMatrix type="matrix" values="0 0 0 0 0 0 0 0 0 0 0 0 0 0 0 0 0 0 0.23 0"/>
<feBlend mode="normal" in2="shape" result="effect1_innerShadow_1163_126"/>
</filter>
<filter id="filter22_f_1163_126" x="104.373" y="22.8279" width="86.5273" height="60.7109" filterUnits="userSpaceOnUse" color-interpolation-filters="sRGB">
<feFlood flood-opacity="0" result="BackgroundImageFix"/>
<feBlend mode="normal" in="SourceGraphic" in2="BackgroundImageFix" result="shape"/>
<feGaussianBlur stdDeviation="1.36583" result="effect1_foregroundBlur_1163_126"/>
</filter>
<filter id="filter23_f_1163_126" x="227.253" y="21.4094" width="86.5273" height="60.7109" filterUnits="userSpaceOnUse" color-interpolation-filters="sRGB">
<feFlood flood-opacity="0" result="BackgroundImageFix"/>
<feBlend mode="normal" in="SourceGraphic" in2="BackgroundImageFix" result="shape"/>
<feGaussianBlur stdDeviation="1.36583" result="effect1_foregroundBlur_1163_126"/>
</filter>
<filter id="filter24_f_1163_126" x="118.758" y="-1.36314" width="190.589" height="33.7043" filterUnits="userSpaceOnUse" color-interpolation-filters="sRGB">
<feFlood flood-opacity="0" result="BackgroundImageFix"/>
<feBlend mode="normal" in="SourceGraphic" in2="BackgroundImageFix" result="shape"/>
<feGaussianBlur stdDeviation="3.18694" result="effect1_foregroundBlur_1163_126"/>
</filter>
<filter id="filter25_f_1163_126" x="104.971" y="5.67881" width="194.795" height="48.7361" filterUnits="userSpaceOnUse" color-interpolation-filters="sRGB">
<feFlood flood-opacity="0" result="BackgroundImageFix"/>
<feBlend mode="normal" in="SourceGraphic" in2="BackgroundImageFix" result="shape"/>
<feGaussianBlur stdDeviation="2.46845" result="effect1_foregroundBlur_1163_126"/>
</filter>
<filter id="filter26_f_1163_126" x="103.631" y="38.1049" width="99.2751" height="73.4587" filterUnits="userSpaceOnUse" color-interpolation-filters="sRGB">
<feFlood flood-opacity="0" result="BackgroundImageFix"/>
<feBlend mode="normal" in="SourceGraphic" in2="BackgroundImageFix" result="shape"/>
<feGaussianBlur stdDeviation="4.55278" result="effect1_foregroundBlur_1163_126"/>
</filter>
<filter id="filter27_f_1163_126" x="300.475" y="11.7206" width="40.4294" height="33.3537" filterUnits="userSpaceOnUse" color-interpolation-filters="sRGB">
<feFlood flood-opacity="0" result="BackgroundImageFix"/>
<feBlend mode="normal" in="SourceGraphic" in2="BackgroundImageFix" result="shape"/>
<feGaussianBlur stdDeviation="4.55278" result="effect1_foregroundBlur_1163_126"/>
</filter>
<filter id="filter28_f_1163_126" x="213.768" y="36.5917" width="122.381" height="73.4587" filterUnits="userSpaceOnUse" color-interpolation-filters="sRGB">
<feFlood flood-opacity="0" result="BackgroundImageFix"/>
<feBlend mode="normal" in="SourceGraphic" in2="BackgroundImageFix" result="shape"/>
<feGaussianBlur stdDeviation="4.55278" result="effect1_foregroundBlur_1163_126"/>
</filter>
<filter id="filter29_f_1163_126" x="145.425" y="33.6979" width="137.512" height="32.7801" filterUnits="userSpaceOnUse" color-interpolation-filters="sRGB">
<feFlood flood-opacity="0" result="BackgroundImageFix"/>
<feBlend mode="normal" in="SourceGraphic" in2="BackgroundImageFix" result="shape"/>
<feGaussianBlur stdDeviation="5.46333" result="effect1_foregroundBlur_1163_126"/>
</filter>
<linearGradient id="paint0_linear_1163_126" x1="265" y1="1071" x2="293" y2="1071" gradientUnits="userSpaceOnUse">
<stop stop-opacity="0.1"/>
<stop offset="1" stop-opacity="0"/>
</linearGradient>
<linearGradient id="paint1_linear_1163_126" x1="265" y1="559" x2="293" y2="559" gradientUnits="userSpaceOnUse">
<stop stop-opacity="0.1"/>
<stop offset="1" stop-opacity="0"/>
</linearGradient>
<linearGradient id="paint2_linear_1163_126" x1="265" y1="47" x2="293" y2="47" gradientUnits="userSpaceOnUse">
<stop stop-opacity="0.1"/>
<stop offset="1" stop-opacity="0"/>
</linearGradient>
<radialGradient id="paint3_radial_1163_126" cx="0" cy="0" r="1" gradientUnits="userSpaceOnUse" gradientTransform="translate(205.767 1033.71) rotate(89.9996) scale(48.0187 122.217)">
<stop offset="0.602152" stop-color="#D9D9D9"/>
<stop offset="1" stop-color="#B1B1B1"/>
</radialGradient>
<radialGradient id="paint4_radial_1163_126" cx="0" cy="0" r="1" gradientUnits="userSpaceOnUse" gradientTransform="translate(205.768 1033.71) rotate(89.9996) scale(48.0187 122.217)">
<stop offset="0.602152" stop-color="#D9D9D9"/>
<stop offset="1" stop-color="#B1B1B1"/>
</radialGradient>
<radialGradient id="paint5_radial_1163_126" cx="0" cy="0" r="1" gradientUnits="userSpaceOnUse" gradientTransform="translate(121.966 1061.94) rotate(4.36052) scale(25.7454 15.9886)">
<stop stop-color="#343333"/>
<stop offset="1" stop-color="#B2B1B1"/>
</radialGradient>
<radialGradient id="paint6_radial_1163_126" cx="0" cy="0" r="1" gradientUnits="userSpaceOnUse" gradientTransform="translate(293.382 1056.07) rotate(156.827) scale(24.872 15.4462)">
<stop stop-color="#5F5F5F"/>
<stop offset="1" stop-color="#B2B1B1"/>
</radialGradient>
<radialGradient id="paint7_radial_1163_126" cx="0" cy="0" r="1" gradientUnits="userSpaceOnUse" gradientTransform="translate(213.927 1040.5) rotate(90) scale(52.5931 92.6813)">
<stop stop-color="white"/>
<stop offset="1" stop-color="white" stop-opacity="0"/>
</radialGradient>
<radialGradient id="paint8_radial_1163_126" cx="0" cy="0" r="1" gradientUnits="userSpaceOnUse" gradientTransform="translate(206.771 1048.83) rotate(90) scale(25.3863 106.936)">
<stop stop-color="#343231"/>
<stop offset="1" stop-color="#343231" stop-opacity="0"/>
</radialGradient>
<radialGradient id="paint9_radial_1163_126" cx="0" cy="0" r="1" gradientUnits="userSpaceOnUse" gradientTransform="translate(205.767 520.242) rotate(89.9996) scale(48.0187 122.217)">
<stop offset="0.602152" stop-color="#D9D9D9"/>
<stop offset="1" stop-color="#B1B1B1"/>
</radialGradient>
<radialGradient id="paint10_radial_1163_126" cx="0" cy="0" r="1" gradientUnits="userSpaceOnUse" gradientTransform="translate(205.768 520.243) rotate(89.9996) scale(48.0187 122.217)">
<stop offset="0.602152" stop-color="#D9D9D9"/>
<stop offset="1" stop-color="#B1B1B1"/>
</radialGradient>
<radialGradient id="paint11_radial_1163_126" cx="0" cy="0" r="1" gradientUnits="userSpaceOnUse" gradientTransform="translate(121.966 548.473) rotate(4.36052) scale(25.7454 15.9886)">
<stop stop-color="#343333"/>
<stop offset="1" stop-color="#B2B1B1"/>
</radialGradient>
<radialGradient id="paint12_radial_1163_126" cx="0" cy="0" r="1" gradientUnits="userSpaceOnUse" gradientTransform="translate(293.382 542.6) rotate(156.827) scale(24.872 15.4462)">
<stop stop-color="#5F5F5F"/>
<stop offset="1" stop-color="#B2B1B1"/>
</radialGradient>
<radialGradient id="paint13_radial_1163_126" cx="0" cy="0" r="1" gradientUnits="userSpaceOnUse" gradientTransform="translate(213.927 527.029) rotate(90) scale(52.5931 92.6813)">
<stop stop-color="white"/>
<stop offset="1" stop-color="white" stop-opacity="0"/>
</radialGradient>
<radialGradient id="paint14_radial_1163_126" cx="0" cy="0" r="1" gradientUnits="userSpaceOnUse" gradientTransform="translate(206.771 535.457) rotate(90) scale(25.3863 106.936)">
<stop stop-color="#343231"/>
<stop offset="1" stop-color="#343231" stop-opacity="0"/>
</radialGradient>
<radialGradient id="paint15_radial_1163_126" cx="0" cy="0" r="1" gradientUnits="userSpaceOnUse" gradientTransform="translate(205.767 8.77762) rotate(89.9996) scale(48.0187 122.217)">
<stop offset="0.602152" stop-color="#D9D9D9"/>
<stop offset="1" stop-color="#B1B1B1"/>
</radialGradient>
<radialGradient id="paint16_radial_1163_126" cx="0" cy="0" r="1" gradientUnits="userSpaceOnUse" gradientTransform="translate(205.768 8.77859) rotate(89.9996) scale(48.0187 122.217)">
<stop offset="0.602152" stop-color="#D9D9D9"/>
<stop offset="1" stop-color="#B1B1B1"/>
</radialGradient>
<radialGradient id="paint17_radial_1163_126" cx="0" cy="0" r="1" gradientUnits="userSpaceOnUse" gradientTransform="translate(121.966 37.0085) rotate(4.36052) scale(25.7454 15.9886)">
<stop stop-color="#343333"/>
<stop offset="1" stop-color="#B2B1B1"/>
</radialGradient>
<radialGradient id="paint18_radial_1163_126" cx="0" cy="0" r="1" gradientUnits="userSpaceOnUse" gradientTransform="translate(293.382 31.1356) rotate(156.827) scale(24.872 15.4462)">
<stop stop-color="#5F5F5F"/>
<stop offset="1" stop-color="#B2B1B1"/>
</radialGradient>
<radialGradient id="paint19_radial_1163_126" cx="0" cy="0" r="1" gradientUnits="userSpaceOnUse" gradientTransform="translate(213.927 15.5643) rotate(90) scale(52.5931 92.6813)">
<stop stop-color="white"/>
<stop offset="1" stop-color="white" stop-opacity="0"/>
</radialGradient>
<radialGradient id="paint20_radial_1163_126" cx="0" cy="0" r="1" gradientUnits="userSpaceOnUse" gradientTransform="translate(206.771 24.0918) rotate(90) scale(25.3863 106.936)">
<stop stop-color="#343231"/>
<stop offset="1" stop-color="#343231" stop-opacity="0"/>
</radialGradient>
</defs>
</svg>
