<svg width="222" height="60" viewBox="0 0 222 60" fill="none" xmlns="http://www.w3.org/2000/svg">
<g id="Group 1597879959">
<path id="Vector" d="M199.122 59.1406L111.655 59.7285L113.321 51.3881L216.261 50.6069L199.122 59.1406Z" fill="#E94F2D"/>
<g id="Group">
<path id="Vector_2" d="M0.840882 58.4029C0.302414 58.4029 0.0668335 58.0166 0.0668335 57.7142C0.0668335 57.4118 0.218278 57.2523 0.681025 56.7903C1.75796 55.7908 4.0717 53.8674 4.383 52.2463L12.4769 6.44531C12.4769 4.05993 10.0874 2.06091 10.0874 1.053C10.1631 0.515452 10.5501 0.280273 11.0886 0.280273H35.53C39.5433 0.280273 41.6215 1.74174 41.6215 4.97544L38.1551 25.5284C37.8438 27.3006 37.381 28.3757 36.3041 29.0728L30.3641 32.9197L34.1418 53.2374C35.3786 55.774 36.9183 56.5467 36.9183 57.6218C36.9183 58.1594 36.5313 58.3946 35.9928 58.3946H21.269C20.8063 58.3946 20.495 58.2434 20.495 57.7814C20.495 56.6307 22.733 56.1688 22.733 54.8585C22.733 53.5482 19.8051 38.2364 19.8051 38.2364L17.3399 39.849C16.5658 40.311 16.263 41.0081 16.1031 41.8481L14.4036 52.6999C14.4036 54.7745 16.7173 56.5467 16.7173 57.6302C16.6416 58.1678 16.3303 58.4029 15.7918 58.4029H0.840882ZM22.0431 9.52783L18.5767 29.0812C18.5767 29.6188 18.8123 29.854 19.275 29.854C19.662 29.854 27.2932 24.848 27.2932 24.848C28.0672 24.3105 28.4458 23.9241 28.6814 22.6138C30.9951 10.0654 30.9951 9.763 30.9951 9.52783C30.9951 8.45272 30.4567 7.99077 28.9927 7.99077H23.6753C22.977 7.99077 22.2114 8.60391 22.0599 9.52783H22.0431Z" fill="#E94F2D"/>
<path id="Vector_3" d="M37.8522 57.7136C37.8522 57.4028 38.0036 57.2516 38.4664 56.7897C39.5433 55.7902 41.8571 53.8668 42.1684 52.2457L50.2622 6.4447C50.2622 4.05932 47.8728 2.0603 47.8728 1.05239C47.9485 0.514842 48.3355 0.279663 48.874 0.279663H73.3154C77.3287 0.279663 79.4068 1.74113 79.4068 4.97483C79.4068 6.67148 75.4777 27.4512 75.4777 27.4512C75.1664 29.2234 73.6267 30.7605 72.087 31.6844L54.8897 42.1498C54.1156 42.6118 53.737 43.3005 53.5772 44.1488L52.1889 52.6909C52.1889 54.7655 54.5027 56.5377 54.5027 57.6212C54.4269 58.1588 54.1156 58.3939 53.5772 58.3939H38.6178C38.0794 58.3939 37.8438 58.0076 37.8438 57.7052L37.8522 57.7136ZM59.8284 9.52722C59.8284 9.52722 56.0507 30.1557 55.975 30.9285C55.975 31.3148 56.0508 31.466 56.4378 31.466C56.9005 31.466 64.7672 26.3845 64.7672 26.3845C65.617 25.8469 65.9283 25.3094 66.1555 23.9991C66.1555 23.9991 68.7805 10.4511 68.7805 9.52722C68.7805 8.45211 68.242 7.99016 66.7781 7.99016H61.4607C60.7708 7.99016 59.9967 8.6033 59.8453 9.52722H59.8284Z" fill="#E94F2D"/>
<path id="Vector_4" d="M102.166 9.29214C102.166 8.44381 101.551 7.98186 100.929 7.98186H95.6871C94.5344 7.98186 94.0717 8.51941 93.8361 9.6785L86.8949 49.5496C86.8949 50.3224 87.4334 50.7003 88.3589 50.7003H94.0633C94.7532 50.7003 95.603 50.0872 95.8385 49.0877C95.8385 49.0877 96.6126 44.5437 96.9155 42.7715C97.0669 41.9231 97.3782 41.3856 97.9924 40.9992C97.9924 40.9992 106.086 36.5308 106.86 36.5308C107.399 36.5308 107.786 36.8416 107.786 37.3036C107.786 37.5303 105.624 50.3896 105.085 53.0857C104.622 55.5467 101.846 58.394 97.841 58.394H81.1064C77.8671 58.394 75.8647 56.9326 75.8647 54.3876C75.8647 53.0017 78.1784 40.8396 84.497 5.20171C85.0355 2.0436 87.7363 0.271362 91.3625 0.271362H107.323C110.949 0.271362 112.8 2.58115 112.8 4.81535C112.8 5.3529 111.875 10.4344 111.412 13.1306C111.185 14.4409 110.874 14.9784 110.259 15.3648C110.259 15.3648 102.09 19.8332 101.316 19.8332C100.777 19.8332 100.466 19.6064 100.466 19.136C100.466 18.6657 102.166 9.97247 102.166 9.28374V9.29214Z" fill="#E94F2D"/>
</g>
<g id="Group_2">
<path id="Vector_5" d="M114.004 46.4494C113.566 46.4494 113.381 46.147 113.381 45.9034C113.381 45.6599 113.507 45.5423 113.878 45.1811C114.753 44.4 116.62 42.8965 116.873 41.6282L123.427 5.79711C123.427 3.93248 121.492 2.36183 121.492 1.5807C121.492 1.16074 121.871 0.975952 122.3 0.975952H134.415C134.794 0.975952 134.979 1.16073 134.979 1.45471C134.979 2.17704 131.857 4.04167 131.546 5.78871L124.992 41.981C124.992 43.6104 126.868 44.9879 126.868 45.8362C126.809 46.2562 126.557 46.441 126.119 46.441H114.004V46.4494Z" fill="#E94F2D"/>
<path id="Vector_6" d="M130.049 46.4489C129.611 46.4489 129.426 46.0878 129.426 45.8442C129.426 45.6006 129.552 45.3654 129.922 45.0043C130.797 44.2231 132.665 42.896 132.918 41.6278L139.472 5.79665C139.472 3.93202 137.537 2.54614 137.537 1.76501C137.596 1.34505 137.915 0.983887 138.344 0.983887H161.448C162.693 0.983887 163.131 1.46264 163.131 2.18498L161.885 9.23193C161.7 10.2566 161.389 10.6766 160.884 10.979C160.884 10.979 154.33 14.4731 153.707 14.4731C153.211 14.4731 153.018 14.2295 153.018 13.6331L154.078 7.97205C154.078 7.85446 154.137 7.79566 154.137 7.66967C154.137 7.24971 153.825 7.00613 153.388 7.00613H148.701C148.138 7.00613 147.515 7.48489 147.389 8.20722L144.646 23.1411L152.765 18.8071C152.765 18.8071 153.262 18.5047 153.64 18.5047C153.893 18.5047 154.078 18.6895 154.078 18.9834L152.58 26.5091C152.395 27.2315 151.957 27.5339 150.956 28.0714L142.778 32.3466L141.466 39.6371C141.466 40.1159 141.718 40.4183 142.215 40.4183H146.893C147.456 40.4183 148.205 39.9395 148.331 39.15L148.895 35.8407C148.954 35.3619 149.206 34.9336 149.703 34.6396C149.703 34.6396 156.324 31.1455 156.947 31.1455C157.384 31.1455 157.637 31.3219 157.637 31.6915C157.637 31.8091 157.51 32.4726 157.51 32.4726L155.39 44.7607C155.205 45.8442 154.515 46.4489 153.203 46.4489H130.04H130.049Z" fill="#E94F2D"/>
<path id="Vector_7" d="M178.174 33.4385C178.174 33.1949 178.115 33.0185 177.796 33.0185C177.417 33.0185 176.357 33.4973 175.86 33.4973C175.549 33.4973 175.423 33.1949 175.423 32.8925L176.424 26.9291C176.609 26.2067 177.299 26.0219 177.299 26.0219C177.299 26.0219 186.605 22.8302 187.286 22.8302C187.782 22.8302 187.976 23.0738 187.976 23.4938L184.602 42.2829C184.291 44.2063 181.977 46.4405 178.738 46.4405H165.192C162.567 46.4405 160.943 45.2982 160.943 43.3076L167.876 4.82229C168.313 2.35291 170.501 0.967041 173.429 0.967041H187.042C189.978 0.967041 191.476 2.77288 191.476 4.51992L190.357 11.0209C190.172 12.0456 189.92 12.4656 189.423 12.768C189.423 12.768 182.802 16.262 182.179 16.262C181.742 16.262 181.489 16.0773 181.489 15.7161C181.489 15.2961 182.802 8.42556 182.802 8.0056C182.802 7.34206 182.305 6.98089 181.8 6.98089H177.114C176.18 6.98089 175.802 7.40085 175.616 8.30797L169.87 39.5027C169.87 40.1075 170.249 40.4098 170.997 40.4098H175.675C176.239 40.4098 176.921 39.9311 177.114 39.1415L178.174 33.4217V33.4385Z" fill="#E94F2D"/>
<path id="Vector_8" d="M188.851 46.4489C188.413 46.4489 188.228 46.0878 188.228 45.8442C188.228 45.6006 188.355 45.3654 188.725 45.0043C189.6 44.2231 191.468 42.896 191.72 41.6278L198.274 5.79665C198.274 3.93202 196.339 2.54614 196.339 1.76501C196.398 1.34505 196.718 0.983887 197.147 0.983887H220.25C221.496 0.983887 221.933 1.46264 221.933 2.18498L220.688 9.23193C220.503 10.2566 220.192 10.6766 219.687 10.979C219.687 10.979 213.133 14.4731 212.51 14.4731C212.014 14.4731 211.82 14.2295 211.82 13.6331L212.88 7.97205C212.88 7.85446 212.939 7.79566 212.939 7.66967C212.939 7.24971 212.628 7.00613 212.19 7.00613H207.512C206.949 7.00613 206.326 7.48489 206.2 8.20722L203.457 23.1411L211.576 18.8071C211.576 18.8071 212.072 18.5047 212.451 18.5047C212.703 18.5047 212.889 18.6895 212.889 18.9834L211.391 26.5091C211.206 27.2315 210.768 27.5339 209.767 28.0714L201.589 32.3466L200.277 39.6371C200.277 40.1159 200.529 40.4183 201.025 40.4183H205.712C206.275 40.4183 207.024 39.9395 207.151 39.15L207.714 35.8407C207.773 35.3619 208.026 34.9336 208.522 34.6396C208.522 34.6396 215.143 31.1455 215.766 31.1455C216.204 31.1455 216.456 31.3219 216.456 31.6915C216.456 31.8091 216.33 32.4726 216.33 32.4726L214.209 44.7607C214.024 45.8442 213.334 46.4489 212.022 46.4489H188.859H188.851Z" fill="#E94F2D"/>
</g>
</g>
</svg>
